# xmcd CD database file
#
# Track frame offsets:
#	150
#	16875
#	42072
#	58720
#
# Disc length: 1014 seconds
#
# Revision: 0
# Processed by: cddbd v1.5PL3 Copyright (c) Steve Scherf et al.
# Submitted via: CDex 1.50beta8
#
DISCID=2703f404
DTITLE=Chante Moore - Straight Up
DYEAR=2000
DGENRE=Pop
TTITLE0=Straight Up (Radio Edit)
TTITLE1=Straight Up (Extended Mix)
TTITLE2=Straight Up (Radio Edit, No Twist)
TTITLE3=Train Of Thought
EXTD=YEAR: 2000
EXTT0=
EXTT1=
EXTT2=
EXTT3=
PLAYORDER=
